<mxfile host="app.diagrams.net" modified="2021-10-22T14:36:52.396Z" agent="5.0 (Windows NT 10.0; Win64; x64) AppleWebKit/537.36 (KHTML, like Gecko) Chrome/94.0.4606.81 Safari/537.36" etag="IoF33uc1JW3XSb7Ke4NO" version="15.5.8" type="github">
  <diagram id="C5RBs43oDa-KdzZeNtuy" name="Page-1">
    <mxGraphModel dx="1422" dy="2008" grid="1" gridSize="10" guides="1" tooltips="1" connect="1" arrows="1" fold="1" page="1" pageScale="1" pageWidth="827" pageHeight="1169" math="0" shadow="0">
      <root>
        <mxCell id="WIyWlLk6GJQsqaUBKTNV-0" />
        <mxCell id="WIyWlLk6GJQsqaUBKTNV-1" parent="WIyWlLk6GJQsqaUBKTNV-0" />
        <mxCell id="sGCUDIFAkFk-lEb0_VSd-2" style="edgeStyle=orthogonalEdgeStyle;rounded=0;orthogonalLoop=1;jettySize=auto;html=1;exitX=0.5;exitY=1;exitDx=0;exitDy=0;" edge="1" parent="WIyWlLk6GJQsqaUBKTNV-1">
          <mxGeometry relative="1" as="geometry">
            <mxPoint x="140" y="160" as="sourcePoint" />
            <mxPoint x="140" y="160" as="targetPoint" />
          </mxGeometry>
        </mxCell>
        <mxCell id="sGCUDIFAkFk-lEb0_VSd-14" style="edgeStyle=orthogonalEdgeStyle;rounded=0;orthogonalLoop=1;jettySize=auto;html=1;exitX=1;exitY=0.75;exitDx=0;exitDy=0;entryX=0;entryY=0.75;entryDx=0;entryDy=0;" edge="1" parent="WIyWlLk6GJQsqaUBKTNV-1" source="sGCUDIFAkFk-lEb0_VSd-6" target="sGCUDIFAkFk-lEb0_VSd-7">
          <mxGeometry relative="1" as="geometry" />
        </mxCell>
        <mxCell id="sGCUDIFAkFk-lEb0_VSd-6" value="Input Opponent Card" style="html=1;strokeWidth=2;shape=manualInput;whiteSpace=wrap;rounded=1;size=26;arcSize=11;direction=east;" vertex="1" parent="WIyWlLk6GJQsqaUBKTNV-1">
          <mxGeometry x="40" y="80" width="160" height="60" as="geometry" />
        </mxCell>
        <mxCell id="sGCUDIFAkFk-lEb0_VSd-16" style="edgeStyle=orthogonalEdgeStyle;rounded=0;orthogonalLoop=1;jettySize=auto;html=1;exitX=1;exitY=0.5;exitDx=0;exitDy=0;entryX=0;entryY=0.5;entryDx=0;entryDy=0;" edge="1" parent="WIyWlLk6GJQsqaUBKTNV-1" source="sGCUDIFAkFk-lEb0_VSd-7" target="sGCUDIFAkFk-lEb0_VSd-15">
          <mxGeometry relative="1" as="geometry" />
        </mxCell>
        <mxCell id="sGCUDIFAkFk-lEb0_VSd-7" value="Input Dealer Cards" style="html=1;strokeWidth=2;shape=manualInput;whiteSpace=wrap;rounded=1;size=26;arcSize=11;comic=0;" vertex="1" parent="WIyWlLk6GJQsqaUBKTNV-1">
          <mxGeometry x="240" y="80" width="160" height="60" as="geometry" />
        </mxCell>
        <mxCell id="sGCUDIFAkFk-lEb0_VSd-13" style="edgeStyle=orthogonalEdgeStyle;rounded=0;orthogonalLoop=1;jettySize=auto;html=1;exitX=0;exitY=0.5;exitDx=0;exitDy=0;exitPerimeter=0;entryX=0;entryY=0.75;entryDx=0;entryDy=0;" edge="1" parent="WIyWlLk6GJQsqaUBKTNV-1" source="sGCUDIFAkFk-lEb0_VSd-8" target="sGCUDIFAkFk-lEb0_VSd-6">
          <mxGeometry relative="1" as="geometry" />
        </mxCell>
        <mxCell id="sGCUDIFAkFk-lEb0_VSd-8" value="Start Program" style="strokeWidth=2;html=1;shape=mxgraph.flowchart.start_1;whiteSpace=wrap;" vertex="1" parent="WIyWlLk6GJQsqaUBKTNV-1">
          <mxGeometry x="170" width="100" height="60" as="geometry" />
        </mxCell>
        <mxCell id="sGCUDIFAkFk-lEb0_VSd-18" value="" style="edgeStyle=orthogonalEdgeStyle;rounded=0;orthogonalLoop=1;jettySize=auto;html=1;" edge="1" parent="WIyWlLk6GJQsqaUBKTNV-1" source="sGCUDIFAkFk-lEb0_VSd-15" target="sGCUDIFAkFk-lEb0_VSd-17">
          <mxGeometry relative="1" as="geometry" />
        </mxCell>
        <mxCell id="sGCUDIFAkFk-lEb0_VSd-15" value="Make Card List" style="verticalLabelPosition=middle;verticalAlign=middle;html=1;shape=process;whiteSpace=wrap;rounded=1;size=0.14;arcSize=6;labelPosition=center;align=center;" vertex="1" parent="WIyWlLk6GJQsqaUBKTNV-1">
          <mxGeometry x="440" y="80" width="100" height="60" as="geometry" />
        </mxCell>
        <mxCell id="sGCUDIFAkFk-lEb0_VSd-20" value="" style="edgeStyle=orthogonalEdgeStyle;rounded=0;orthogonalLoop=1;jettySize=auto;html=1;" edge="1" parent="WIyWlLk6GJQsqaUBKTNV-1" source="sGCUDIFAkFk-lEb0_VSd-17" target="sGCUDIFAkFk-lEb0_VSd-19">
          <mxGeometry relative="1" as="geometry" />
        </mxCell>
        <mxCell id="sGCUDIFAkFk-lEb0_VSd-17" value="Compare Opponent Card" style="verticalLabelPosition=middle;verticalAlign=middle;html=1;shape=process;whiteSpace=wrap;rounded=1;size=0.14;arcSize=6;labelPosition=center;align=center;" vertex="1" parent="WIyWlLk6GJQsqaUBKTNV-1">
          <mxGeometry x="440" y="220" width="100" height="60" as="geometry" />
        </mxCell>
        <mxCell id="sGCUDIFAkFk-lEb0_VSd-34" value="Yes" style="edgeStyle=orthogonalEdgeStyle;rounded=0;orthogonalLoop=1;jettySize=auto;html=1;fontSize=12;" edge="1" parent="WIyWlLk6GJQsqaUBKTNV-1" source="sGCUDIFAkFk-lEb0_VSd-19" target="sGCUDIFAkFk-lEb0_VSd-33">
          <mxGeometry relative="1" as="geometry" />
        </mxCell>
        <mxCell id="sGCUDIFAkFk-lEb0_VSd-19" value="Dealer Has Card of Same Suit" style="rhombus;whiteSpace=wrap;html=1;rounded=1;arcSize=0;spacing=2;fontSize=12;" vertex="1" parent="WIyWlLk6GJQsqaUBKTNV-1">
          <mxGeometry x="270" y="210" width="80" height="80" as="geometry" />
        </mxCell>
        <mxCell id="sGCUDIFAkFk-lEb0_VSd-42" value="" style="edgeStyle=orthogonalEdgeStyle;rounded=0;orthogonalLoop=1;jettySize=auto;html=1;fontSize=12;" edge="1" parent="WIyWlLk6GJQsqaUBKTNV-1" source="sGCUDIFAkFk-lEb0_VSd-33">
          <mxGeometry relative="1" as="geometry">
            <mxPoint x="310" y="510" as="targetPoint" />
          </mxGeometry>
        </mxCell>
        <mxCell id="sGCUDIFAkFk-lEb0_VSd-33" value="Disregard all of the cards the dealer has that are not in the same suit as the card played by opponent" style="rounded=1;whiteSpace=wrap;html=1;absoluteArcSize=1;arcSize=14;strokeWidth=2;shadow=0;sketch=0;fontSize=12;" vertex="1" parent="WIyWlLk6GJQsqaUBKTNV-1">
          <mxGeometry x="260" y="350" width="100" height="100" as="geometry" />
        </mxCell>
        <mxCell id="sGCUDIFAkFk-lEb0_VSd-45" value="Yes" style="edgeStyle=orthogonalEdgeStyle;rounded=0;orthogonalLoop=1;jettySize=auto;html=1;fontFamily=Helvetica;fontSize=12;" edge="1" parent="WIyWlLk6GJQsqaUBKTNV-1" source="sGCUDIFAkFk-lEb0_VSd-43" target="sGCUDIFAkFk-lEb0_VSd-44">
          <mxGeometry relative="1" as="geometry" />
        </mxCell>
        <mxCell id="sGCUDIFAkFk-lEb0_VSd-43" value="Dealer has cards of higher rank than opponent" style="rhombus;whiteSpace=wrap;html=1;rounded=1;arcSize=0;spacing=2;fontSize=12;" vertex="1" parent="WIyWlLk6GJQsqaUBKTNV-1">
          <mxGeometry x="270" y="510" width="80" height="80" as="geometry" />
        </mxCell>
        <mxCell id="sGCUDIFAkFk-lEb0_VSd-44" value="Yes" style="whiteSpace=wrap;html=1;rounded=1;spacing=2;arcSize=0;" vertex="1" parent="WIyWlLk6GJQsqaUBKTNV-1">
          <mxGeometry x="250" y="680" width="120" height="60" as="geometry" />
        </mxCell>
      </root>
    </mxGraphModel>
  </diagram>
</mxfile>
